<svg xmlns="http://www.w3.org/2000/svg" width="60" height="55" viewBox="0 0 60 55">
    <path fill="#9060EB" fill-rule="nonzero" d="M57.6 21.56l-2.34-.54c-1.17-4.32-3.66-8.28-7.02-11.52l1.5-6.84C50.07 1.4 49.08.32 47.91.5c-3.18.36-6 1.62-8.01 3.78-3.18-1.26-7.02-1.98-10.68-1.98-9.36 0-17.37 4.5-22.2 11.16-.69-.15-1.35-.33-2.01-.33C2.16 13.13 0 15.44 0 18.5c0 2.16 1.17 3.96 2.85 4.86-.18 1.26-.36 2.7-.36 4.14 0 6.48 2.67 12.24 6.84 16.74l-.99 6.12c-.33 2.16 1.35 4.14 3.36 4.14h2.16c1.68 0 3-1.26 3.33-3.06l.18-1.44c3.51 1.62 7.5 2.7 11.85 2.7 4.17 0 8.34-.9 11.85-2.7l.18 1.44c.33 1.8 1.68 3.06 3.33 3.06h2.16c2.01 0 3.66-1.98 3.33-4.14l-.99-5.94c2.34-2.34 4.02-5.22 5.19-8.28l3-.72c1.5-.36 2.67-1.8 2.67-3.6v-6.66c.33-1.8-.84-3.24-2.34-3.6zM45 27.5c-1.8 0-3-2.1-3-4.5s1.2-4.5 3-4.5 3 2.1 3 4.5-1.2 4.5-3 4.5zM22.65 14.99c-1.35.93-3.24.54-4.14-.84-.93-1.35-.54-3.24.84-4.14 7.02-4.68 14.31-4.68 21.33 0 1.38.93 1.74 2.79.84 4.17a3.031 3.031 0 0 1-4.17.84c-5.01-3.36-9.69-3.36-14.7-.03z"/>
</svg>
