<?xml version="1.0" encoding="UTF-8"?>
<svg width="62px" height="62px" viewBox="0 0 62 62" version="1.1" xmlns="http://www.w3.org/2000/svg" xmlns:xlink="http://www.w3.org/1999/xlink">
    <!-- Generator: sketchtool 59.1 (101010) - https://sketch.com -->
    <title>723EF6BB-18BB-4BAA-BD2D-F5B6497DB9A7</title>
    <desc>Created with sketchtool.</desc>
    <g id="Components" stroke="none" stroke-width="1" fill="none" fill-rule="evenodd">
        <g id="Artboard" transform="translate(-850.000000, -1036.000000)" fill="#00C781" fill-rule="nonzero">
            <g id="cat" transform="translate(850.000000, 1036.000000)">
                <path d="M12.6,61.44 L39.84,61.44 L39.84,57.84 C39.84,55.85544 38.22456,54.24 36.24,54.24 L30.84,54.24 C29.84508,54.24 29.04,53.43492 29.04,52.44 C29.04,51.44508 29.84508,50.64 30.84,50.64 C33.81768,50.64 36.24,48.21768 36.24,45.24 C36.24,42.26232 33.81768,39.84 30.84,39.84 C29.84508,39.84 29.04,39.03492 29.04,38.04 C29.04,37.04508 29.84508,36.24 30.84,36.24 C35.80236,36.24 39.84,40.27764 39.84,45.24 C39.84,47.35116 39.10872,49.29348 37.8888,50.82984 C41.067,51.57696 43.44,54.43692 43.44,57.84 L43.44,61.44 L56.04,61.44 C57.03492,61.44 57.84,60.63492 57.84,59.64 L57.84,57.84 C57.84,53.86908 54.61092,50.64 50.64,50.64 L50.64,45.6654 C50.64,43.86888 51.6384,42.25344 53.24508,41.45016 C56.07864,40.03164 57.84,37.18224 57.84,34.0146 L57.84,33.49764 C55.26348,35.22624 52.16904,36.24 48.84,36.24 C41.80944,36.24 35.87148,31.71192 33.63516,25.44 L25.44,25.44 C15.5154,25.44 7.2,33.5154 7.2,43.44 C7.2,49.34868 10.10064,54.55596 14.51136,57.84 L12.6,57.84 C7.63764,57.84 3.6,53.80236 3.6,48.84 L3.6,35.93064 C3.6,33.16908 4.71972,30.4656 6.6726,28.51272 C7.37568,27.80964 7.37568,26.67048 6.6726,25.9674 C5.96952,25.26432 4.83036,25.26432 4.12728,25.9674 C1.50468,28.59 0,32.22168 0,35.93064 L0,48.84 C0,55.78692 5.65308,61.44 12.6,61.44 Z" id="Path"></path>
                <path d="M59.64,0 C54.67764,0 50.64,4.03764 50.64,9 C50.64,9.99312 49.83312,10.8 48.84,10.8 C47.84688,10.8 47.04,9.99312 47.04,9 C47.04,4.03764 43.00236,0 38.04,0 C37.04508,0 36.24,0.80508 36.24,1.8 L36.24,20.04 C36.24,26.98692 41.89308,32.64 48.84,32.64 C55.78692,32.64 61.44,26.98692 61.44,20.04 L61.44,1.8 C61.44,0.80508 60.63492,0 59.64,0 Z M50.64,25.44 L47.04,25.44 C46.04508,25.44 45.24,24.63492 45.24,23.64 C45.24,22.64508 46.04508,21.84 47.04,21.84 L50.64,21.84 C51.63492,21.84 52.44,22.64508 52.44,23.64 C52.44,24.63492 51.63492,25.44 50.64,25.44 Z" id="Shape"></path>
            </g>
        </g>
    </g>
</svg>